<?xml version="1.0" encoding="UTF-8"?>
<svg id="uuid-b1057028-daad-409a-b2d5-7a327f48471c" xmlns="http://www.w3.org/2000/svg" viewBox="0 0 513.01 513">
  <defs>
    <style>
      .cls-1 {
        fill: #fff;
        stroke: #000;
        stroke-miterlimit: 10;
      }
    </style>
  </defs>
  <g id="uuid-0d602966-f83e-4552-94fc-abed4ffc067f">
    <path class="cls-1" d="m272.5,512.5h-32c-6.25-.77-12.51-1.44-18.74-2.33-50.96-7.28-96.02-27.6-134.52-61.81C42.79,408.85,15.03,359.74,4.48,301.11c-1.7-9.47-2.67-19.07-3.98-28.61v-32c1.31-3.17.85-6.56,1.21-9.84,5.93-54.23,26.43-102.18,62.61-143.06C104.09,42.65,153.64,14.7,212.9,4.36c9.15-1.59,18.4-2.59,27.6-3.86h32c1.28.28,2.55.72,3.85.82,39.86,2.98,77.18,14.42,111.18,35.35,66.08,40.68,106.79,99.2,121.05,175.71,1.73,9.29,2.64,18.74,3.93,28.11v32c-1.42,3.15-.86,6.56-1.21,9.85-5.5,50.63-23.84,96.06-56.16,135.44-40.19,48.97-91.6,79.39-154.05,90.75-9.45,1.72-19.05,2.66-28.58,3.97h-.01Zm6.42-287.9c0-6.82-.1-13.59.05-20.34.07-3.02-.55-4.52-4.08-4.49-18.16.15-36.32.13-54.48,0-3.13-.02-3.9,1.08-3.86,4.07.76,59.81.09,119.63-.07,179.44,0,3.7,1.28,4.32,4.58,4.29,17.83-.14,35.66-.16,53.48.01,3.53.03,4.48-1.03,4.45-4.48-.16-16.99-.12-33.99-.06-50.98.06-18.49,0-36.99.42-55.47.26-11.29,6.12-19.97,15.13-26.29,17.93-12.58,40.93-4.58,47.37,16.25,2.19,7.08,2.7,14.36,2.69,21.72-.04,31.49.04,62.98-.09,94.47-.02,3.57.66,4.86,4.58,4.81,17.66-.23,35.32-.23,52.98,0,4.03.05,4.94-1.2,4.92-5.03-.14-33.99-.07-67.98-.1-101.97,0-7-.43-13.97-1.32-20.93-4.65-36.48-26.41-59.5-61.6-63.6-25.47-2.97-47.06,4.7-62.31,26.51-.54.77-.86,1.82-2.69,2h0Zm-159.25,68.88c0,29.83.05,59.66-.06,89.49-.01,3.28.56,4.67,4.3,4.63,18-.19,36-.19,53.99,0,3.68.04,4.35-1.26,4.34-4.6-.09-59.49-.1-118.99,0-178.48,0-3.79-1.16-4.79-4.84-4.76-17.5.17-35,.2-52.49,0-4.08-.05-5.37,1-5.34,5.24.18,29.5.1,58.99.1,88.49h-.01Zm29.43-183.97c-11.3.42-23.01,4.81-29.64,17.9-8.52,16.83-.98,36.87,16.33,44.1,19.56,8.17,42.6-.8,48.68-18.95,7.42-22.16-8.45-42.95-35.37-43.05Z"/>
  </g>
</svg>