<?xml version="1.0" encoding="UTF-8"?>
<svg id="uuid-cbb354aa-bdb7-495f-8f16-a4791df3eb4d" data-name="Ebene 2" xmlns="http://www.w3.org/2000/svg" viewBox="0 0 374.26 374.27">
  <g id="uuid-74ec0f9c-9189-4a0f-b4eb-5a4b53a942ea" data-name="Ebene 1">
    <g>
      <path d="m187.06,374.27C83.68,374.22-.13,290.22,0,186.77.13,83.61,84.14-.13,187.39,0c103.24.13,186.95,84.03,186.87,187.29-.08,103.23-83.97,187.02-187.21,186.97Zm-115.52-190.46c0,17.42.01,31.52,0,45.61,0,5.37.22,10.72,1.07,16.03,3.67,22.97,14.74,40.52,36.79,49.9,10.23,4.35,21.05,6.14,32.09,6.19,29.18.12,58.37,0,87.55.06,6.38.01,12.72-.37,18.99-1.47,23.4-4.12,40.81-15.98,49.53-38.81,3.64-9.53,5.14-19.49,5.15-29.67.02-28.81,0-57.62.02-86.43,0-5.49-.22-10.97-1.08-16.4-3.82-23.91-15.64-41.73-38.86-50.74-9.39-3.65-19.25-5.28-29.27-5.32-30.93-.14-61.86-.17-92.79,0-11.55.07-22.83,2.13-33.39,7.09-23.39,10.98-33.48,30.75-35.37,55.3-1.33,17.28-.17,34.66-.43,48.66Z"/>
      <path d="m187.29,94.36c15.09,0,30.19-.02,45.28,0,5.25,0,10.46.59,15.57,1.81,18.34,4.39,30.15,17.7,32.55,36.51.52,4.09.77,8.18.77,12.31-.03,28.69-.03,57.39,0,86.08,0,7.04-.87,13.96-3.28,20.57-6.22,17.06-18.94,25.74-36.59,27.54-15.54,1.58-31.16.92-46.74,1.03-17.71.13-35.42-.17-53.14-.33-5.5-.05-10.91-.79-16.29-1.99-20.16-4.5-29.33-20.29-31.81-36.33-.63-4.07-.81-8.18-.81-12.3.03-28.82.01-57.63.02-86.45,0-6.91.93-13.69,3.29-20.19,6.15-16.92,18.74-25.61,36.22-27.5,15.28-1.65,30.66-.74,45.99-1.11,2.99-.07,5.99-.01,8.98-.01,0,.12,0,.25,0,.37Zm-.02,31.95c-33.96,0-61,27.07-60.98,61.04.02,33.6,27.21,60.58,61.07,60.61,33.41.02,60.67-27.27,60.6-60.67-.07-33.87-27.04-60.98-60.69-60.98Zm61-11.82c-6.69,0-12.09,5.38-12.13,12.05-.04,6.85,5.45,12.25,12.38,12.16,6.67-.08,12.03-5.57,11.94-12.22-.09-6.68-5.5-12-12.19-11.99Z"/>
      <path d="m186.63,226.36c-21.84-.42-39.17-18.2-38.73-39.73.45-21.89,18.14-39.12,39.75-38.71,21.88.41,39.16,18.14,38.72,39.73-.45,21.91-18.13,39.13-39.74,38.72Z"/>
    </g>
  </g>
</svg>