<?xml version="1.0" encoding="UTF-8"?>
<svg id="uuid-203d7c2a-d847-47c0-857b-0ff4a3d53157" xmlns="http://www.w3.org/2000/svg" viewBox="0 0 383.19 383.31">
  <defs>
    <style>
      .cls-1 {
        fill: #fff;
        stroke-width: 0px;
      }
    </style>
  </defs>
  <g id="uuid-30e377d3-b7c1-4179-a52b-7bc498897487">
    <path class="cls-1" d="m203.6,383.31h-23.95c-.7-.68-1.62-.57-2.47-.63-16.24-1.14-32.14-4.13-47.41-9.78C60.17,347.11,17.94,297.73,3.03,225.05c-1.44-7.04-2.04-14.26-3.03-21.39v-23.95c.22-1.09.58-2.16.65-3.26.6-8.72,1.94-17.33,3.83-25.86C27.88,45.14,132.73-20.35,237.76,5.73c99.84,24.79,161.41,122.35,141.79,223.26-15.02,77.22-77.39,138.2-154.92,151.38-6.97,1.18-14.01,1.97-21.02,2.94h0Zm100.9-311.1c-.38-.1-.71-.26-1.04-.26-17.58-.02-35.17.02-52.75-.09-2.27-.01-2.96,1.28-3.83,2.82-26.73,47-53.45,94-80.25,140.96-1.19,2.08-1.34,3.6-.06,5.75,17.34,29.11,34.6,58.28,51.79,87.49,1.19,2.02,2.49,2.63,4.74,2.62,16.71-.09,33.42-.04,50.13-.07.9,0,1.95.43,2.87-.57-.6-1.07-1.17-2.16-1.79-3.21-16.64-28.23-33.22-56.49-50-84.64-1.89-3.16-2.08-5.38-.18-8.7,26.36-46.06,52.55-92.22,78.75-138.37.65-1.14,1.68-2.16,1.61-3.73h.01ZM78.29,238.51c.92.19,1.26.33,1.61.33,16.59.02,33.18-.03,49.77.08,2.23.02,2.99-1.23,3.91-2.76,12.57-20.8,25.14-41.59,37.8-62.33,1.19-1.95,1.23-3.36.13-5.38-9.14-16.87-18.18-33.79-27.15-50.75-1.15-2.17-2.44-2.96-4.92-2.94-15.47.12-30.93.06-46.4.06-4.12,0-4.13.02-2.18,3.67,8.76,16.36,17.48,32.75,26.37,49.05,1.41,2.58,1.54,4.45-.09,7.03-6.11,9.7-11.94,19.57-17.88,29.38-6.9,11.39-13.81,22.77-20.97,34.56h0Z"/>
  </g>
</svg>