<?xml version="1.0" encoding="UTF-8"?>
<svg id="uuid-ab0e09e7-bfd6-44b2-968c-97a5d49c347f" data-name="Ebene 2" xmlns="http://www.w3.org/2000/svg" viewBox="0 0 384 384">
  <g id="uuid-0d9ad202-ceeb-4ee7-be5b-1e3c73cc6407" data-name="Ebene 1">
    <path d="m227.57,311.47c0-20.83.07-41.66-.07-62.49-.02-3.15.57-4.3,4.03-4.2,9.85.26,19.71.05,29.56.13,2.08.02,2.99-.43,3.34-2.76,2.3-15.4,4.76-30.79,7.29-46.15.47-2.84-.27-3.62-3.18-3.59-15.84.14-31.68-.01-47.52.13-2.99.03-4.07-.55-4-3.81.23-10.35.07-20.7.09-31.06.03-16.02,8.68-25.83,24.51-27.53,11.56-1.24,23.18-.4,34.77-.45,3.01-.01,3.69-.9,3.66-3.77-.15-12.97-.1-25.95-.03-38.92.01-2.13-.27-3.43-2.79-3.73-17.09-2.02-34.15-4.05-51.45-2.52-33.65,2.98-57.56,26.89-60.38,60.58-1.33,15.82-.46,31.67-.62,47.5-.03,2.94-.77,3.75-3.72,3.71-11.72-.17-23.45,0-35.17-.12-2.43-.02-3.18.66-3.16,3.13.11,15.34.11,30.69,0,46.03-.02,2.6.66,3.38,3.31,3.35,11.72-.14,23.45.03,35.17-.12,2.76-.04,3.57.65,3.56,3.5-.1,42.16-.07,84.32-.06,126.49,0,1.9.43,3.61-2.78,3.02-40.55-7.42-75.77-24.9-104.29-55.05-26.56-28.07-43.01-61.16-48.72-99.43C.51,167.05,13.97,116.54,50.68,72.99,81.6,36.32,121.24,14.6,169.09,8.91c95.21-11.32,182.52,49.76,203.27,142.91,24.06,108.02-45.59,203.47-141.36,225.74-3.05.71-3.49-.01-3.48-2.84.1-21.08.06-42.16.06-63.24Z"/>
  </g>
</svg>