<?xml version="1.0" encoding="UTF-8"?>
<svg id="uuid-e6de8ec1-4bf5-4a2e-a183-4e2b96d9bfa9" xmlns="http://www.w3.org/2000/svg" viewBox="0 0 919.16 920.66">
  <defs>
    <style>
      .cls-1 {
        fill: #fff;
        stroke-width: 0px;
      }
    </style>
  </defs>
  <g id="uuid-c64aad06-3f71-43bf-9a69-c772aa1a6c20">
    <g>
      <path class="cls-1" d="m919.16,432.01v57.49c-.51,2.31-1.31,4.6-1.49,6.94-6.08,79.17-30.59,152.23-75.04,217.94-73.28,108.34-174.44,175.11-303.28,199.15-16.97,3.17-34.22,4.79-51.35,7.13h-57.49c-2.36-1.71-5.15-1.36-7.79-1.57-88.45-7.09-169.26-36.04-239.02-90.65C46.75,721.25-15.32,579.88,3.2,406.56c14.02-131.14,77.11-236.88,182.74-315.2,149.03-110.5,343.4-121.65,502.98-28.6,122.96,71.7,197.28,179.3,223.31,319.61,3.04,16.41,4.65,33.09,6.93,49.65h0ZM195.06,730.56c13.93,0,25.77-.42,37.56.16,6.73.33,10.92-2.1,15.19-7.09,55.88-65.25,112.08-130.21,167.82-195.57,5.93-6.95,7.82-5.41,12.2,1.01,44.35,65,89.04,129.75,133.43,194.72,3.43,5.03,7,6.93,13.07,6.9,46.4-.25,92.8-.11,139.2-.2,2.73,0,5.87,1.22,8.61-1.58-1.66-2.57-3.19-5.09-4.86-7.51-67.43-98.14-134.82-196.31-202.44-294.32-4-5.8-4.56-9.13.51-14.98,61.56-71.02,122.75-142.35,183.99-213.65,1.85-2.15,4.6-3.79,5.06-8.19-11.49,0-22.79.5-34.02-.17-7.69-.46-12.62,2.24-17.54,8.01-49.57,58.04-99.4,115.85-149.17,173.72-4.79,5.56-9.67,11.04-14.83,16.94-3.25-4.65-6.01-8.54-8.71-12.47-40.84-59.42-81.73-118.81-122.38-178.36-3.76-5.51-7.6-7.89-14.5-7.84-45.8.34-91.6.16-137.4.22-2.9,0-6.99-1.5-8.46.99-1.91,3.25,2.15,5.71,3.87,8.21,64.82,94.49,129.65,188.97,194.84,283.21,4.59,6.64,3.51,10.26-1.23,15.73-53.65,62.03-107.08,124.25-160.56,186.42-12.61,14.66-25.2,29.33-39.25,45.69h0Z"/>
      <path class="cls-1" d="m258.98,225.42c23.06,0,44.6.19,66.13-.13,5.4-.08,7.17,3.41,9.51,6.76,47.31,67.65,94.61,135.31,141.9,202.97,58.95,84.33,117.9,168.66,176.84,253,1.7,2.43,3.29,4.94,4.87,7.31-1.78,3.01-4.44,1.89-6.6,1.9-18.85.1-37.71-.05-56.56.13-4.57.04-7.68-1.1-10.47-5.1-107.69-154.26-215.49-308.45-323.27-462.65-.64-.91-1.1-1.95-2.35-4.2h0Z"/>
    </g>
  </g>
</svg>