<?xml version="1.0" encoding="UTF-8"?>
<svg id="Ebene_1" data-name="Ebene 1" xmlns="http://www.w3.org/2000/svg" version="1.1" viewBox="0 0 850.39 141.73">
  <defs>
    <style>
      .cls-1 {
        fill: #1d1d1b;
        stroke-width: 0px;
      }
    </style>
  </defs>
  <path class="cls-1" d="M46.33,99.49c-4.81,0-9.23-.79-13.26-2.36-4.04-1.57-7.55-3.81-10.55-6.72-3-2.91-5.33-6.29-6.99-10.14-1.66-3.86-2.49-8.13-2.49-12.81s.83-8.96,2.49-12.81c1.66-3.86,4.01-7.24,7.03-10.14,3.03-2.91,6.56-5.15,10.59-6.72,4.04-1.57,8.46-2.36,13.27-2.36,5.1,0,9.76.88,13.98,2.62,4.21,1.75,7.77,4.35,10.68,7.79l-7.48,7.03c-2.31-2.43-4.87-4.26-7.66-5.47-2.79-1.21-5.79-1.82-8.99-1.82s-6.25.53-8.95,1.6c-2.7,1.07-5.05,2.58-7.03,4.54-1.99,1.96-3.55,4.27-4.67,6.94-1.13,2.67-1.69,5.61-1.69,8.81s.56,6.14,1.69,8.81c1.13,2.67,2.68,4.98,4.67,6.94,1.99,1.96,4.33,3.47,7.03,4.54,2.7,1.07,5.68,1.6,8.95,1.6s6.2-.61,8.99-1.82c2.79-1.21,5.34-3.07,7.66-5.56l7.48,7.03c-2.91,3.44-6.47,6.05-10.68,7.83-4.21,1.78-8.9,2.67-14.07,2.67Z"/>
  <path class="cls-1" d="M80.77,98.6v-39.76h14.26c3.33,0,6.19.53,8.58,1.59,2.39,1.06,4.22,2.58,5.51,4.57,1.29,1.99,1.93,4.4,1.93,7.24s-.64,5.14-1.93,7.13c-1.29,1.99-3.13,3.52-5.51,4.6-2.39,1.08-5.25,1.62-8.58,1.62h-12.67l1.31-1.36v14.37h-2.9ZM83.66,84.4l-1.31-1.36h12.67c4.28,0,7.53-.95,9.75-2.84,2.22-1.89,3.32-4.54,3.32-7.95s-1.11-6.11-3.32-7.98c-2.22-1.87-5.46-2.81-9.75-2.81h-12.67l1.31-1.42v24.37ZM108.38,98.6l-10.34-14.43h3.3l10.34,14.43h-3.3Z"/>
  <path class="cls-1" d="M124.58,95.98h24.55v2.61h-27.45v-39.76h26.59v2.61h-23.7v34.53ZM124.24,77.13h21.54v2.56h-21.54v-2.56Z"/>
  <path class="cls-1" d="M153.05,98.6l18.3-39.76h2.9l18.3,39.76h-3.13l-17.27-37.94h1.25l-17.22,37.94h-3.13ZM159.75,87.41l.97-2.44h23.81l.97,2.44h-25.74Z"/>
  <path class="cls-1" d="M207.37,98.6v-37.14h-14.32v-2.61h31.54v2.61h-14.32v37.14h-2.9Z"/>
  <path class="cls-1" d="M231.75,98.6v-39.76h2.9v39.76h-2.9Z"/>
  <path class="cls-1" d="M259.65,98.6l-17.73-39.76h3.18l16.93,38h-1.76l16.99-38h3.01l-17.73,39.76h-2.9Z"/>
  <path class="cls-1" d="M305.05,95.98h24.55v2.61h-27.45v-39.76h26.59v2.61h-23.7v34.53ZM304.71,77.13h21.54v2.56h-21.54v-2.56Z"/>
  <path class="cls-1" d="M351.3,98.6l-17.73-39.76h3.18l16.93,38h-1.76l16.99-38h3.01l-17.73,39.76h-2.9Z"/>
  <path class="cls-1" d="M382.1,95.98h24.55v2.61h-27.45v-39.76h26.59v2.61h-23.7v34.53ZM381.76,77.13h21.54v2.56h-21.54v-2.56Z"/>
  <path class="cls-1" d="M417.22,98.6v-39.76h2.44l28.36,36.18h-1.31v-36.18h2.9v39.76h-2.39l-28.41-36.18h1.31v36.18h-2.9Z"/>
  <path class="cls-1" d="M471.09,98.6v-37.14h-14.32v-2.61h31.54v2.61h-14.32v37.14h-2.9Z"/>
  <path class="cls-1" d="M520.53,98.88c-2.96,0-5.75-.5-8.38-1.5-2.63-1-4.67-2.3-6.11-3.89l1.31-2.16c1.36,1.4,3.23,2.58,5.6,3.55,2.37.96,4.88,1.45,7.53,1.45s4.82-.35,6.51-1.05c1.69-.7,2.94-1.64,3.75-2.81.81-1.17,1.22-2.48,1.22-3.92,0-1.7-.46-3.07-1.36-4.09s-2.1-1.84-3.58-2.44c-1.48-.61-3.09-1.12-4.83-1.53-1.74-.42-3.5-.86-5.28-1.33-1.78-.47-3.41-1.09-4.89-1.85-1.48-.76-2.66-1.79-3.55-3.09-.89-1.31-1.34-3-1.34-5.08,0-1.89.49-3.64,1.48-5.23.98-1.59,2.52-2.88,4.6-3.86,2.08-.98,4.75-1.48,8.01-1.48,2.2,0,4.37.32,6.51.97,2.14.64,3.97,1.52,5.48,2.61l-1.08,2.33c-1.67-1.14-3.46-1.98-5.37-2.53-1.91-.55-3.76-.82-5.54-.82-2.54,0-4.64.36-6.31,1.08-1.67.72-2.9,1.68-3.69,2.87-.8,1.19-1.19,2.53-1.19,4,0,1.7.44,3.07,1.33,4.09.89,1.02,2.07,1.84,3.55,2.44,1.48.61,3.11,1.12,4.89,1.53,1.78.42,3.54.86,5.29,1.33,1.74.47,3.35,1.09,4.83,1.85,1.48.76,2.67,1.78,3.58,3.07s1.36,2.95,1.36,5c0,1.86-.51,3.59-1.53,5.2-1.02,1.61-2.59,2.9-4.69,3.86-2.1.96-4.8,1.45-8.1,1.45Z"/>
  <path class="cls-1" d="M561.55,98.88c-2.96,0-5.69-.5-8.21-1.5-2.52-1-4.72-2.42-6.59-4.26-1.88-1.84-3.32-3.98-4.35-6.42-1.02-2.44-1.53-5.1-1.53-7.98s.51-5.54,1.53-7.98c1.02-2.44,2.47-4.58,4.35-6.42,1.88-1.84,4.07-3.26,6.59-4.26,2.52-1,5.26-1.5,8.21-1.5s5.69.5,8.21,1.5c2.52,1,4.71,2.41,6.56,4.23,1.86,1.82,3.3,3.95,4.35,6.39,1.04,2.44,1.56,5.12,1.56,8.04s-.52,5.59-1.56,8.04-2.49,4.57-4.35,6.39c-1.86,1.82-4.04,3.23-6.56,4.23s-5.26,1.5-8.21,1.5ZM561.55,96.21c2.54,0,4.89-.43,7.05-1.31s4.04-2.1,5.63-3.69c1.59-1.59,2.83-3.45,3.72-5.57.89-2.12,1.34-4.43,1.34-6.93s-.45-4.86-1.34-6.96c-.89-2.1-2.13-3.95-3.72-5.54-1.59-1.59-3.47-2.82-5.63-3.69-2.16-.87-4.51-1.31-7.05-1.31s-4.89.44-7.05,1.31c-2.16.87-4.04,2.1-5.65,3.69-1.61,1.59-2.86,3.44-3.75,5.54-.89,2.1-1.33,4.42-1.33,6.96s.44,4.81,1.33,6.93c.89,2.12,2.14,3.98,3.75,5.57,1.61,1.59,3.49,2.82,5.65,3.69,2.16.87,4.51,1.31,7.05,1.31Z"/>
  <path class="cls-1" d="M592.29,98.6v-39.76h2.9v37.14h22.9v2.61h-25.8Z"/>
  <path class="cls-1" d="M641.11,98.88c-4.93,0-8.81-1.44-11.65-4.32-2.84-2.88-4.26-7.16-4.26-12.84v-22.89h2.9v22.77c0,4.96,1.14,8.63,3.41,11.02,2.27,2.39,5.49,3.58,9.66,3.58s7.33-1.19,9.6-3.58c2.27-2.38,3.41-6.06,3.41-11.02v-22.77h2.9v22.89c0,5.68-1.42,9.96-4.26,12.84-2.84,2.88-6.74,4.32-11.71,4.32Z"/>
  <path class="cls-1" d="M678.21,98.6v-37.14h-14.32v-2.61h31.54v2.61h-14.32v37.14h-2.9Z"/>
  <path class="cls-1" d="M702.59,98.6v-39.76h2.9v39.76h-2.9Z"/>
  <path class="cls-1" d="M736.23,98.88c-2.96,0-5.69-.5-8.21-1.5-2.52-1-4.72-2.42-6.59-4.26-1.88-1.84-3.32-3.98-4.35-6.42-1.02-2.44-1.53-5.1-1.53-7.98s.51-5.54,1.53-7.98c1.02-2.44,2.47-4.58,4.35-6.42,1.88-1.84,4.07-3.26,6.59-4.26,2.52-1,5.26-1.5,8.21-1.5s5.69.5,8.21,1.5c2.52,1,4.71,2.41,6.56,4.23,1.86,1.82,3.3,3.95,4.35,6.39,1.04,2.44,1.56,5.12,1.56,8.04s-.52,5.59-1.56,8.04-2.49,4.57-4.35,6.39c-1.86,1.82-4.04,3.23-6.56,4.23s-5.26,1.5-8.21,1.5ZM736.23,96.21c2.54,0,4.89-.43,7.05-1.31s4.04-2.1,5.63-3.69c1.59-1.59,2.83-3.45,3.72-5.57.89-2.12,1.34-4.43,1.34-6.93s-.45-4.86-1.34-6.96c-.89-2.1-2.13-3.95-3.72-5.54-1.59-1.59-3.47-2.82-5.63-3.69-2.16-.87-4.51-1.31-7.05-1.31s-4.89.44-7.05,1.31c-2.16.87-4.04,2.1-5.65,3.69-1.61,1.59-2.86,3.44-3.75,5.54-.89,2.1-1.33,4.42-1.33,6.96s.44,4.81,1.33,6.93c.89,2.12,2.14,3.98,3.75,5.57,1.61,1.59,3.49,2.82,5.65,3.69,2.16.87,4.51,1.31,7.05,1.31Z"/>
  <path class="cls-1" d="M766.97,98.6v-39.76h2.44l28.36,36.18h-1.31v-36.18h2.9v39.76h-2.39l-28.41-36.18h1.31v36.18h-2.9Z"/>
  <path class="cls-1" d="M823.68,98.88c-2.96,0-5.75-.5-8.38-1.5-2.63-1-4.67-2.3-6.11-3.89l1.31-2.16c1.36,1.4,3.23,2.58,5.6,3.55,2.37.96,4.88,1.45,7.53,1.45s4.82-.35,6.51-1.05c1.69-.7,2.94-1.64,3.75-2.81.81-1.17,1.22-2.48,1.22-3.92,0-1.7-.46-3.07-1.36-4.09s-2.1-1.84-3.58-2.44c-1.48-.61-3.09-1.12-4.83-1.53-1.74-.42-3.5-.86-5.28-1.33-1.78-.47-3.41-1.09-4.89-1.85-1.48-.76-2.66-1.79-3.55-3.09-.89-1.31-1.34-3-1.34-5.08,0-1.89.49-3.64,1.48-5.23.98-1.59,2.52-2.88,4.6-3.86,2.08-.98,4.75-1.48,8.01-1.48,2.2,0,4.37.32,6.51.97,2.14.64,3.97,1.52,5.48,2.61l-1.08,2.33c-1.67-1.14-3.46-1.98-5.37-2.53-1.91-.55-3.76-.82-5.54-.82-2.54,0-4.64.36-6.31,1.08-1.67.72-2.9,1.68-3.69,2.87-.8,1.19-1.19,2.53-1.19,4,0,1.7.44,3.07,1.33,4.09.89,1.02,2.07,1.84,3.55,2.44,1.48.61,3.11,1.12,4.89,1.53,1.78.42,3.54.86,5.29,1.33,1.74.47,3.35,1.09,4.83,1.85,1.48.76,2.67,1.78,3.58,3.07s1.36,2.95,1.36,5c0,1.86-.51,3.59-1.53,5.2-1.02,1.61-2.59,2.9-4.69,3.86-2.1.96-4.8,1.45-8.1,1.45Z"/>
</svg>